HIERARCHY
ROOT Hips
{
    OFFSET 0.000000 0.000000 0.000000
    CHANNELS 6 Xposition Yposition Zposition Zrotation Xrotation Yrotation
    JOINT Spine
    {
        OFFSET -0.000000 8.834163 0.000000
        CHANNELS 3 Zrotation Xrotation Yrotation
        JOINT Spine1
        {
            OFFSET -0.000000 17.855492 0.000000
            CHANNELS 3 Zrotation Xrotation Yrotation
            JOINT Neck
            {
                OFFSET -0.000000 17.782162 1.616560
                CHANNELS 3 Zrotation Xrotation Yrotation
                JOINT Head
                {
                    OFFSET -0.000000 15.082717 -2.154674
                    CHANNELS 3 Zrotation Xrotation Yrotation
                    End Site
                    {
                        OFFSET -0.000000 26.933422 0.000000
                    }
                }
            }
            JOINT LeftShoulder
            {
                OFFSET 4.280775 15.989452 -0.632416
                CHANNELS 3 Zrotation Xrotation Yrotation
                JOINT LeftArm
                {
                    OFFSET 11.735877 0.000000 0.000000
                    CHANNELS 3 Zrotation Xrotation Yrotation
                    JOINT LeftForeArm
                    {
                        OFFSET 33.149986 0.000000 0.000000
                        CHANNELS 3 Zrotation Xrotation Yrotation
                        JOINT LeftHand
                        {
                            OFFSET 28.572401 0.000000 0.000000
                            CHANNELS 3 Zrotation Xrotation Yrotation
                            End Site
                            {
                                OFFSET 16.160055 0.000000 0.000000
                            }
                        }
                    }
                }
            }
            JOINT RightShoulder
            {
                OFFSET -4.290631 15.989452 -0.632416
                CHANNELS 3 Zrotation Xrotation Yrotation
                JOINT RightArm
                {
                    OFFSET -11.735877 0.000000 0.000000
                    CHANNELS 3 Zrotation Xrotation Yrotation
                    JOINT RightForeArm
                    {
                        OFFSET -33.149986 0.000000 0.000000
                        CHANNELS 3 Zrotation Xrotation Yrotation
                        JOINT RightHand
                        {
                            OFFSET -28.572401 0.000000 0.000000
                            CHANNELS 3 Zrotation Xrotation Yrotation
                            End Site
                            {
                                OFFSET -16.160055 0.000000 0.000000
                            }
                        }
                    }
                }
            }
        }
    }
    JOINT LeftUpLeg
    {
        OFFSET 10.773369 0.000000 0.000000
        CHANNELS 3 Zrotation Xrotation Yrotation
        JOINT LeftLeg
        {
            OFFSET -0.000000 -54.062664 0.000000
            CHANNELS 3 Zrotation Xrotation Yrotation
            JOINT LeftFoot
            {
                OFFSET -0.000000 -48.941059 0.000000
                CHANNELS 3 Zrotation Xrotation Yrotation
                JOINT LeftToeBase
                {
                    OFFSET -0.000000 -7.002690 16.160055
                    CHANNELS 3 Zrotation Xrotation Yrotation
                    End Site
                    {
                        OFFSET -0.000000 0.000000 4.309348
                    }
                }
            }
        }
    }
    JOINT RightUpLeg
    {
        OFFSET -10.773369 0.000000 0.000000
        CHANNELS 3 Zrotation Xrotation Yrotation
        JOINT RightLeg
        {
            OFFSET -0.000000 -54.062664 0.000000
            CHANNELS 3 Zrotation Xrotation Yrotation
            JOINT RightFoot
            {
                OFFSET -0.000000 -48.941059 0.000000
                CHANNELS 3 Zrotation Xrotation Yrotation
                JOINT RightToeBase
                {
                    OFFSET -0.000000 -7.002690 16.160055
                    CHANNELS 3 Zrotation Xrotation Yrotation
                    End Site
                    {
                        OFFSET -0.000000 0.000000 4.309348
                    }
                }
            }
        }
    }
}
MOTION
Frames:    11
Frame Time:    0.008333
-38.286003    76.907906    -36.632217    76.275185    23.374901    -91.320923    -15.728829    -37.706123    -16.160965    3.973825    45.655426    -12.432961    15.932441    42.102230    9.088758    -16.563581    -49.152828    4.364950    12.624717    -0.675943    -21.746351    -8.757851    6.442346    -35.075207    10.531773    -8.387581    -7.132481    16.321609    -8.287827    -3.885561    12.680475    8.461375    -7.655042    42.720238    43.178551    0.067437    -12.511902    -5.163731    52.010784    -36.454487    6.406871    -16.447395    115.532173    -32.268368    130.252991    -109.524399    73.636459    69.633934    12.932488    -35.717896    29.550074    0.000000    0.000000    0.000000    -171.445938    -47.338612    -171.597137    98.609184    78.305290    -44.227905    -23.443846    -26.672487    -40.550938    0.000000    0.000000    0.000000    
-38.280663    77.546051    -36.497372    76.199394    23.523729    -90.972099    -15.388486    -37.399437    -16.247435    3.612578    45.169415    -12.513457    15.772372    42.911610    8.951591    -16.739582    -49.936005    4.105085    12.537014    -0.715567    -21.460325    -8.927015    6.591787    -35.522003    10.595285    -8.612149    -6.746180    15.628572    -8.450115    -3.368599    12.716393    8.652725    -7.077343    42.643131    42.504631    0.509340    -12.533208    -4.979069    51.887215    -36.356426    6.456427    -16.109442    115.293198    -33.259621    130.205612    -105.699730    73.758324    66.854828    12.708370    -35.718323    28.928671    0.000000    0.000000    0.000000    -170.911499    -47.935566    -170.972900    94.034805    78.321762    -40.219681    -23.131779    -26.581686    -40.044903    0.000000    0.000000    0.000000    
-38.337215    78.080559    -36.465782    76.188606    23.550526    -91.069000    -15.579085    -37.662498    -16.181061    3.709085    45.323460    -12.387472    16.709084    42.953800    8.665986    -17.856724    -49.699543    3.473802    12.553021    -0.823566    -21.602404    -9.128339    6.210710    -35.970181    10.266102    -8.498025    -6.238266    15.266819    -8.370339    -3.221436    12.942993    8.676297    -6.901083    42.269047    42.361412    1.017048    -12.694161    -5.125203    51.963444    -36.092949    6.391884    -16.208883    114.900124    -33.593124    130.442703    -103.020813    74.318085    64.672218    12.387129    -35.606659    28.491636    0.000000    0.000000    0.000000    -171.140991    -48.504009    -171.105347    89.702919    78.274101    -36.456551    -22.910007    -26.469669    -39.668427    0.000000    0.000000    0.000000    
-38.346355    78.730461    -36.351959    76.219093    23.651743    -90.874710    -15.581802    -37.724335    -16.196770    3.793004    45.306564    -12.427227    16.754744    42.884312    8.548658    -17.745886    -49.624546    3.426618    12.619057    -0.996735    -21.501972    -9.437024    5.954800    -36.621033    10.020313    -8.784831    -5.887745    15.102041    -8.652556    -2.887203    13.092307    8.587482    -6.777869    41.860138    42.304146    1.620615    -12.856427    -5.405366    51.974850    -35.877377    6.131118    -16.121660    114.538628    -34.354748    130.238968    -98.729843    74.179077    61.051311    12.140747    -35.496937    27.855703    0.000000    0.000000    0.000000    -170.830872    -49.040878    -170.721375    84.835197    78.150505    -32.472855    -22.577374    -26.300352    -38.859901    0.000000    0.000000    0.000000    
-38.366707    79.355309    -36.243984    76.105644    23.748947    -90.627586    -15.499363    -37.727947    -16.270229    3.760676    45.354111    -12.517078    16.004108    42.965828    8.700304    -16.809422    -49.848236    3.891438    12.675994    -0.967401    -21.022028    -10.617691    4.571845    -37.461746    10.015882    -8.252580    -5.569649    14.162589    -8.167491    -3.239144    13.035502    8.677876    -6.368804    41.491539    41.651749    2.460395    -12.764761    -5.310145    51.992180    -35.475975    6.109441    -16.086206    114.221664    -35.200867    130.222488    -94.560829    74.425591    57.566216    11.692497    -35.475372    27.148182    0.000000    0.000000    0.000000    -170.514145    -49.692909    -170.331039    80.271309    77.970131    -28.810230    -22.148787    -26.302288    -38.089897    0.000000    0.000000    0.000000    
-38.400684    79.986664    -36.146389    76.100250    23.828369    -90.369568    -15.501768    -37.667679    -16.252954    3.920272    44.936119    -12.558059    16.206055    43.418682    8.440939    -17.138691    -49.985683    3.551924    12.300054    -0.889024    -21.138390    -9.976538    5.540096    -37.566036    10.061879    -9.025250    -5.950201    13.822184    -8.805595    -2.490783    13.085759    8.832012    -6.024958    41.352524    40.975159    2.842444    -12.754823    -5.372992    51.868671    -34.988319    5.851436    -15.781015    113.846642    -35.999699    129.986496    -90.579247    74.164299    54.474529    11.223522    -35.364426    26.241827    0.000000    0.000000    0.000000    -170.170502    -50.275799    -169.835815    75.814888    77.654449    -25.086302    -21.980022    -26.225929    -37.573380    0.000000    0.000000    0.000000    
-38.453854    80.572510    -36.055988    75.946320    23.935728    -90.048584    -15.545300    -37.704025    -16.182520    4.118225    45.012455    -12.552193    16.052277    43.557037    8.239348    -16.710550    -50.362717    3.511952    12.398955    -1.040406    -20.700531    -11.014219    4.577566    -38.774296    9.907051    -8.981525    -5.781677    13.284933    -8.785084    -2.598907    13.180405    8.902471    -5.863058    41.055019    40.635357    3.311135    -12.906701    -5.726789    52.009670    -34.401966    5.468576    -15.671447    113.490349    -36.851646    129.908615    -86.638641    74.207741    51.121220    10.905257    -35.235382    25.694441    0.000000    0.000000    0.000000    -169.877487    -50.905941    -169.541534    71.900696    77.537987    -21.828503    -21.695774    -26.148127    -37.179916    0.000000    0.000000    0.000000    
-38.408375    81.224533    -35.837780    75.967941    23.951971    -89.542809    -15.132857    -37.736416    -16.009449    3.455016    44.764095    -12.233570    17.027800    43.586288    7.757706    -17.511015    -50.268688    2.847889    12.755467    -1.087838    -20.657038    -10.548055    5.772320    -39.161983    10.096581    -10.034752    -6.309197    12.787884    -9.723403    -2.158226    13.554844    8.932586    -5.786207    40.584576    40.144642    3.862277    -12.967303    -5.866039    52.015408    -33.572197    5.188011    -15.516574    113.175926    -38.034206    129.518005    -82.588249    73.452362    47.678642    10.789200    -35.085342    25.258194    0.000000    0.000000    0.000000    -169.122498    -51.319782    -168.632813    67.796715    77.233360    -18.666315    -21.528952    -26.010323    -36.411198    0.000000    0.000000    0.000000    
-38.481899    81.801781    -35.790749    75.887848    24.138119    -89.228683    -15.303984    -37.824837    -15.994387    4.066264    44.738201    -12.396714    16.548611    43.623055    7.661798    -16.589798    -50.358345    3.136377    12.530036    -0.871076    -20.728888    -11.174667    4.852407    -39.770523    10.006030    -9.899175    -6.487313    12.172900    -9.551698    -2.025314    13.629228    8.992924    -5.575241    40.155766    39.447910    4.408397    -12.752074    -5.903520    52.094498    -33.692696    5.037983    -15.402481    112.887428    -38.831013    129.384659    -78.924149    73.212631    44.273857    10.641812    -34.851040    25.061203    0.000000    0.000000    0.000000    -168.745636    -51.922459    -168.251617    64.204262    76.918961    -15.601824    -21.465004    -25.896143    -36.206966    0.000000    0.000000    0.000000    
-38.568680    82.396767    -35.703651    75.553963    24.346144    -88.762123    -15.083529    -37.811504    -15.774707    4.097529    44.789135    -12.270725    16.827076    43.667305    7.485696    -16.775145    -50.343761    2.936822    12.443803    -1.267960    -20.588305    -11.403512    5.342862    -40.387859    9.969565    -10.328389    -6.799667    12.324344    -9.929444    -1.745945    13.770729    8.825190    -5.372967    39.969719    39.211014    4.692540    -12.956034    -6.061172    52.138950    -33.303352    4.938230    -15.429673    112.419296    -39.799507    129.056961    -75.109978    72.951180    41.022518    10.375727    -34.671669    24.525723    0.000000    0.000000    0.000000    -168.175446    -52.744526    -167.589294    60.990269    76.490730    -12.908745    -21.036470    -25.865244    -35.873295    0.000000    0.000000    0.000000    
-38.621593    83.011459    -35.581909    75.302307    24.517115    -88.139442    -14.949857    -37.908844    -15.781721    4.095963    45.126129    -12.323455    17.008810    43.036983    7.354521    -16.681602    -49.876713    2.853902    12.553182    -1.282530    -20.303602    -11.259801    5.640323    -40.933739    10.127007    -10.557007    -7.311917    11.998223    -10.074050    -1.502262    13.789551    8.577969    -5.064624    39.656487    38.800156    5.349592    -12.965608    -6.059836    52.040733    -33.559414    4.884853    -15.158145    112.041382    -41.000195    128.872543    -71.177704    72.571190    37.691383    10.132277    -34.480495    24.062447    0.000000    0.000000    0.000000    -167.336777    -53.426132    -166.561111    57.958649    75.998962    -10.271339    -20.883320    -25.783619    -35.789837    0.000000    0.000000    0.000000    
